<svg viewBox="0 0 72 72" xmlns="http://www.w3.org/2000/svg"><path d="m36.096 36.3716c-1.4066.0714-2.5841-.8749-3.7267-1.6749l-2.0893 29.2641h10.8322l-2.19-28.4641c-.8319.5707-1.8173.8757-2.8262.8749z" fill="#d0cfce"/><path d="m32.3667 24.4379c.0046.0633.0216.1251.05.1818.1174.184.3019.315.5144.3652 1.2434-1.0656 2.9447-1.4229 4.5117-.9476.4714-.5217.7544-1.1862.8038-1.8876.0053-.6874-.1017-1.3711-.3167-2.0241-.7951-3.0258-1.7545-6.006-2.8739-8.9274-.3177-.8908-.7432-1.7393-1.2669-2.5268-.2908-.4726-.7342-.8317-1.2569-1.018-.5444-.1711-1.1299.0976-1.3551.6219-.048.2033-.0577.4138-.0286.6206.4061 5.1807.8122 10.3614 1.2182 15.542z" fill="#92d3f5"/><circle cx="35.9461" cy="28.9461" fill="#d0cfce" r="1.3528"/><path d="m34.0253 35.1441c.0525-.0356.0975-.0812.1324-.1342.1007-.1937.1218-.419.0591-.6281-1.5445-.544-2.7046-1.8387-3.0765-3.4334-.6875-.1474-1.4045-.0602-2.0366.2477-.598.3391-1.1366.7736-1.5946 1.2863-2.2228 2.2015-4.3241 4.5225-6.2944 6.9526-.6126.7205-1.1347 1.5133-1.5548 2.3606-.2639.4881-.3532 1.0517-.2532 1.5975.124.557.6495.9297 1.2161.8626.2001-.0601.3872-.1569.5518-.2855 4.2837-2.9422 8.5672-5.8842 12.8507-8.8261z" fill="#92d3f5"/><path d="m42.4678 28.3546c-.0571-.0277-.1191-.0439-.1824-.0476-.2181.0097-.4238.104-.5735.2629.3011 1.6096-.2401 3.2616-1.4352 4.381.2161.6691.6501 1.2465 1.2328 1.6399.5927.3483 1.2383.5975 1.9113.7378 3.018.8243 6.0786 1.4836 9.1683 1.9748.9303.1702 1.8779.2261 2.8217.1662.5547-.0155 1.0874-.22 1.5101-.5795.4204-.3859.4804-1.0273.139-1.4845-.1521-.1432-.3295-.2569-.5232-.3351-4.6897-2.2386-9.3793-4.4772-14.0689-6.7159z" fill="#92d3f5"/><g fill="none" stroke="#000" stroke-linecap="round" stroke-linejoin="round" stroke-width="2"><path d="m33.0155 38.7965-1.9355 25.1643h10.0322l-2.19-28.4641"/><path d="m32.3667 24.4379c.0046.0633.0216.1251.05.1818.1174.184.3019.315.5144.3652 1.2434-1.0656 2.9447-1.4229 4.5117-.9476.4714-.5217.7544-1.1862.8038-1.8876.0053-.6874-.1017-1.3711-.3167-2.0241-.7951-3.0258-1.7545-6.006-2.8739-8.9274-.3177-.8908-.7432-1.7393-1.2669-2.5268-.2908-.4726-.7342-.8317-1.2569-1.018-.5444-.1711-1.1299.0976-1.3551.6219-.048.2033-.0577.4138-.0286.6206.4061 5.1807.8122 10.3614 1.2182 15.542z"/><path d="m34.0253 35.1441c.0525-.0356.0975-.0812.1324-.1342.1007-.1937.1218-.419.0591-.6281-1.5445-.544-2.7046-1.8387-3.0765-3.4334-.6875-.1474-1.4045-.0602-2.0366.2477-.598.3391-1.1366.7736-1.5946 1.2863-2.2228 2.2015-4.3241 4.5225-6.2944 6.9526-.6126.7205-1.1347 1.5133-1.5548 2.3606-.2639.4881-.3532 1.0517-.2532 1.5975.124.557.6495.9297 1.2161.8626.2001-.0601.3872-.1569.5518-.2855 4.2837-2.9422 8.5672-5.8842 12.8507-8.8261z"/><path d="m42.4678 28.3546c-.0571-.0277-.1191-.0439-.1824-.0476-.2181.0097-.4238.104-.5735.2629.3011 1.6096-.2401 3.2616-1.4352 4.381.2161.6691.6501 1.2465 1.2328 1.6399.5927.3483 1.2383.5975 1.9113.7378 3.018.8243 6.0786 1.4836 9.1683 1.9748.9303.1702 1.8779.2261 2.8217.1662.5547-.0155 1.0874-.22 1.5101-.5795.4204-.3859.4804-1.0273.139-1.4845-.1521-.1432-.3295-.2569-.5232-.3351-4.6897-2.2386-9.3793-4.4772-14.0689-6.7159z"/><circle cx="36.2966" cy="29.2966" r="1.7034"/></g></svg>